<?xml version="1.0" encoding="utf-8"?>
<!-- Uploaded to: SVG Repo, www.svgrepo.com, Generator: SVG Repo Mixer Tools -->
<svg width="800px" height="800px" viewBox="0 0 1024 1024" class="icon"  version="1.1" xmlns="http://www.w3.org/2000/svg"><path d="M533.1968 422.820978H309.998933l-10.9568-159.038578 44.657778-43.838578 56.615822-3.8912h0.022756l70.678755-4.858311 50.210134 37.307733z" fill="#47A7DD" /><path d="M377.116444 274.090667l9.341156 148.707555-0.034133 0.022756h-76.424534l-10.9568-159.038578 44.657778-43.838578 56.615822-3.8912h0.022756z" fill="#3F9EC9" /><path d="M621.624889 927.869156H320.011378l-34.383645-505.059556h370.369423z" fill="#E6E6E6" /><path d="M285.627733 422.8096l34.383645 505.059556h83.399111l-34.383645-505.059556z" fill="#CCCCCC" /><path d="M628.292267 422.820978l27.932444-313.992534a24.211911 24.211911 0 0 0-48.2304-4.278044l-28.307911 318.270578" fill="#FC583D" /><path d="M655.792356 113.664l84.878222 7.543467-21.276445 239.217777-84.878222-7.554844z" fill="#E6E6E6" /><path d="M471.017244 211.205689l-70.678755 4.846933-56.638578 3.8912 13.232356-112.9472 38.547911-2.6624 46.956089-3.219911z" fill="#CEBBA3" /><path d="M400.338489 216.052622l-56.638578 3.8912 13.232356-112.9472 38.547911-2.6624z" fill="#BAA48C" /><path d="M741.910756 107.042133l-71.8848-6.394311a38.286222 38.286222 0 0 0-8.465067-18.614044 38.1952 38.1952 0 0 0-26.043733-13.607822 38.149689 38.149689 0 0 0-28.046223 8.772266 38.183822 38.183822 0 0 0-13.630577 26.077867L580.949333 248.206222a14.199467 14.199467 0 1 0 28.319289 2.514489l12.891022-144.930133a9.887289 9.887289 0 0 1 3.549867-6.781156 9.955556 9.955556 0 0 1 16.361245 8.556089l-0.432356 4.733156-0.011378 0.091022-26.328178 296.197689h-20.0704l9.8304-110.512356a14.199467 14.199467 0 1 0-28.319288-2.514489l-10.057956 113.038223h-20.184178l-11.070578-161.052445a14.222222 14.222222 0 0 0-5.711644-10.433422l-46.205156-34.338133-27.295288-105.221689a14.222222 14.222222 0 0 0-14.734223-10.615467l-85.515377 5.870933a14.222222 14.222222 0 0 0-13.141334 12.526934l-12.652089 107.963733-41.085155 40.334222c-2.958222 2.912711-4.5056 6.974578-4.221156 11.127467l8.237511 119.660089a14.222222 14.222222 0 0 0 28.376178-1.9456l-6.917689-100.511289c15.849244 3.037867 40.425244 6.473956 70.644622 6.473955 15.598933 0 32.699733-0.9216 50.858667-3.2768a14.222222 14.222222 0 0 0-3.663644-28.194133c-43.861333 5.688889-81.351111 2.184533-104.493511-1.581511l22.004622-21.6064 116.849778-8.032711 24.598755 18.272711c-5.563733 1.7408-11.1616 3.3792-16.804978 4.835556a14.210844 14.210844 0 1 0 7.088356 27.522844c8.988444-2.321067 17.908622-5.0176 26.703644-8.009956l9.648356 140.208356H285.627733a14.244978 14.244978 0 0 0-14.188089 15.200711l25.486223 374.363022a14.222222 14.222222 0 1 0 28.376177-1.934222l-24.462222-359.185067H640.796444l-32.4608 476.626489H333.289244l-4.790044-70.405689a14.210844 14.210844 0 1 0-28.376178 1.934223l5.688889 83.649422c0.523378 7.463822 6.712889 13.255111 14.199467 13.255111h301.613511a14.222222 14.222222 0 0 0 14.188089-13.255111l34.383644-505.059556a14.176711 14.176711 0 0 0-14.176711-15.177955h-12.1856l3.584-40.334222 70.712889 6.291911a14.222222 14.222222 0 0 0 15.416889-12.9024l21.265067-239.183645a14.222222 14.222222 0 0 0-12.9024-15.416889z m-310.260623 9.068089l21.2992 82.079289-93.127111 6.405689 9.864534-84.218311 61.963377-4.266667z m218.282667 223.823645l18.750578-210.864356 56.547555 5.028978-1.4336 16.042667-28.2624-2.514489a14.199467 14.199467 0 1 0-2.514489 28.319289l28.273778 2.514488-1.763555 19.899734-28.273778-2.514489a14.210844 14.210844 0 1 0-2.503111 28.319289l28.2624 2.514489-1.763556 19.911111-28.273778-2.514489a14.199467 14.199467 0 1 0-2.503111 28.319289l28.2624 2.514489-1.763555 19.911111L682.666667 292.295111a14.222222 14.222222 0 0 0-2.503111 28.319289l28.2624 2.514489-1.934223 21.822578-56.558933-5.0176z" fill="" /></svg>